# Blender v2.91.2 OBJ File: 'uploads_files_2944736_GraveFree.blend'
# www.blender.org
mtllib grave13.mtl
o Grave_13.002_Cube.131
v -0.432254 1.107427 -2.495901
v -0.432254 1.104709 -2.498620
v -0.429536 1.110146 -2.501338
v -0.432254 1.107427 -2.146893
v -0.429536 1.110146 -2.141456
v -0.432254 1.104709 -2.144175
v -0.538394 1.148645 -2.102957
v -0.535676 1.148645 -2.100239
v -0.535676 1.151363 -2.102957
v -0.535676 1.148645 -2.542556
v -0.538394 1.148645 -2.539837
v -0.535676 1.151363 -2.539837
v 0.999161 0.347922 -2.683595
v 1.001880 0.347922 -2.680876
v 0.999161 0.439698 -2.683595
v 0.999161 0.442416 -2.680876
v 1.001880 0.439698 -2.680876
v 1.001880 0.347922 -1.961919
v 0.999162 0.347922 -1.959201
v 0.999162 0.442416 -1.961919
v 0.999162 0.439698 -1.959201
v 1.001880 0.439698 -1.961919
v -0.720473 0.347922 -2.680876
v -0.717754 0.347922 -2.683594
v -0.717754 0.442416 -2.680876
v -0.717754 0.439698 -2.683594
v -0.720473 0.439698 -2.680876
v -0.717754 0.347922 -1.959200
v -0.720473 0.347922 -1.961919
v -0.717754 0.442416 -1.961919
v -0.720473 0.439698 -1.961919
v -0.717754 0.439698 -1.959200
v -0.432254 0.494411 -2.542556
v -0.429536 0.532341 -2.539838
v -0.429536 0.496334 -2.540634
v -0.429536 0.494709 -2.539854
v -0.429536 0.494411 -2.539838
v -0.429536 0.497130 -2.102957
v -0.432254 0.494411 -2.100239
v -0.429536 0.494411 -2.102957
v -0.538394 0.494411 -2.539837
v -0.535676 0.494411 -2.542556
v -0.535676 0.494411 -2.100239
v -0.538394 0.494411 -2.102957
v 0.894810 0.438275 -2.605885
v 0.897528 0.438275 -2.603167
v 0.894810 0.509776 -2.605885
v 0.894810 0.512495 -2.603167
v 0.897528 0.509776 -2.603167
v 0.897528 0.438275 -2.039629
v 0.894810 0.438275 -2.036911
v 0.894810 0.512495 -2.039629
v 0.894810 0.509776 -2.036911
v 0.897528 0.509776 -2.039629
v -0.635535 0.438275 -2.603166
v -0.632817 0.438275 -2.605885
v -0.632817 0.512495 -2.603166
v -0.632817 0.509776 -2.605885
v -0.635535 0.509776 -2.603166
v -0.632817 0.438275 -2.036910
v -0.635535 0.438275 -2.039629
v -0.632817 0.512495 -2.039629
v -0.635535 0.509776 -2.039629
v -0.632817 0.509776 -2.036910
v -0.432254 1.148645 -2.100239
v -0.429536 1.148645 -2.102957
v -0.432254 1.151363 -2.102957
v -0.432254 1.148645 -2.542556
v -0.432254 1.151363 -2.539837
v -0.429536 1.148645 -2.539837
v -0.432254 0.538348 -2.495901
v -0.429536 0.535629 -2.501338
v -0.432254 0.541066 -2.498620
v -0.467052 0.538348 -2.495901
v -0.467052 0.541066 -2.498620
v -0.469770 0.541066 -2.495901
v -0.432254 0.538348 -2.146893
v -0.432254 0.541066 -2.144175
v -0.429536 0.535629 -2.141456
v -0.467052 0.538348 -2.146893
v -0.469770 0.541066 -2.146893
v -0.467052 0.541066 -2.144175
v -0.467052 1.107427 -2.146893
v -0.467052 1.104709 -2.144175
v -0.469770 1.104709 -2.146893
v -0.467052 1.107427 -2.495901
v -0.469770 1.104709 -2.495901
v -0.467052 1.104709 -2.498620
vt 0.747466 0.214582
vt 0.755336 0.361825
vt 0.747466 0.361825
vt 0.747466 0.362291
vt 0.755336 0.423949
vt 0.747466 0.423949
vt 0.039204 0.847322
vt 0.005038 0.850857
vt 0.001737 0.847322
vt 0.274773 0.501617
vt 0.127529 0.439959
vt 0.274773 0.439959
vt 0.747466 0.004747
vt 0.755336 0.151991
vt 0.747466 0.151991
vt 0.936958 0.206148
vt 0.945828 0.150041
vt 0.945828 0.206148
vt 0.747466 0.152457
vt 0.755336 0.214116
vt 0.747466 0.214116
vt 0.035902 0.900128
vt 0.001737 0.903430
vt 0.005038 0.900128
vt 0.802334 0.185018
vt 0.808466 0.316030
vt 0.802334 0.316030
vt 0.802334 0.316496
vt 0.808466 0.364827
vt 0.802334 0.364827
vt 0.861572 0.264834
vt 0.895563 0.265507
vt 0.865321 0.267918
vt 0.656999 0.507183
vt 0.608670 0.638193
vt 0.608670 0.507183
vt 0.802334 0.004747
vt 0.808466 0.135756
vt 0.802334 0.135756
vt 0.545692 0.925460
vt 0.575623 0.877121
vt 0.575623 0.925460
vt 0.039204 0.850575
vt 0.039204 0.903430
vt 0.001737 0.847555
vt 0.802334 0.136222
vt 0.808466 0.184551
vt 0.802334 0.184552
vt 0.035902 0.850857
vt 0.415296 0.905201
vt 0.452763 0.849093
vt 0.452763 0.905201
vt 0.945828 0.244548
vt 0.936958 0.300656
vt 0.936958 0.244548
vt 0.861247 0.317213
vt 0.865069 0.268164
vt 0.864364 0.312691
vt 0.039205 0.847348
vt 0.898926 0.261188
vt 0.895104 0.310236
vt 0.895810 0.265709
vt 0.945828 0.244082
vt 0.936958 0.206615
vt 0.945828 0.206615
vt 0.864611 0.312894
vt 0.864361 0.312916
vt 0.864605 0.312561
vt 0.894852 0.310483
vt 0.894807 0.310220
vt 0.895102 0.310461
vt 0.946061 0.244548
vt 0.946061 0.244548
vt 0.945828 0.244315
vt 0.946061 0.206148
vt 0.945828 0.206382
vt 0.747232 0.214582
vt 0.747466 0.214349
vt 0.747232 0.151991
vt 0.747466 0.152224
vt 0.747466 0.152224
vt 0.747232 0.361825
vt 0.747232 0.361825
vt 0.747466 0.362058
vt 0.747232 0.423949
vt 0.747232 0.423949
vt 0.747466 0.424183
vt 0.936725 0.150066
vt 0.936725 0.150041
vt 0.936958 0.150041
vt 0.936725 0.300423
vt 0.936725 0.300656
vt 0.802101 0.185018
vt 0.802334 0.184785
vt 0.802101 0.135756
vt 0.802334 0.135989
vt 0.802334 0.135989
vt 0.802101 0.316030
vt 0.802101 0.316030
vt 0.802334 0.316263
vt 0.802101 0.364827
vt 0.802101 0.364827
vt 0.802334 0.365060
vt 0.936725 0.244548
vt 0.936958 0.244315
vt 0.936958 0.206382
vt 0.936725 0.206148
vt 0.865367 0.268180
vt 0.865072 0.267939
vt 0.861297 0.264861
vt 0.861295 0.264590
vt 0.895812 0.265485
vt 0.895569 0.265839
vt 0.898653 0.260973
vt 0.898878 0.260622
vt 0.898928 0.260946
vt 0.898876 0.313539
vt 0.898876 0.313539
vt 0.899171 0.313526
vt 0.861521 0.317427
vt 0.861295 0.317778
vt 0.861246 0.317454
vt 0.946061 0.244082
vt 0.946061 0.206615
vt 0.936725 0.206615
vt 0.936958 0.244082
vt 0.936725 0.244082
vt 0.755336 0.214582
vt 0.747232 0.152457
vt 0.747232 0.214116
vt 0.747232 0.004747
vt 0.755336 0.004514
vt 0.747466 0.004514
vt 0.747232 0.362291
vt 0.936725 0.153294
vt 0.946061 0.150041
vt 0.946061 0.300656
vt 0.808466 0.185018
vt 0.802101 0.136222
vt 0.802101 0.184551
vt 0.802101 0.004747
vt 0.808466 0.004514
vt 0.802334 0.004514
vt 0.802101 0.316496
vt 0.898601 0.313566
vt 0.898878 0.313811
vt 0.861002 0.264875
vt 0.861296 0.265103
vt 0.898877 0.313298
vt 0.755336 0.362291
vt 0.127529 0.501617
vt 0.755336 0.004747
vt 0.755336 0.152457
vt 0.808466 0.316496
vt 0.656999 0.638193
vt 0.808466 0.004747
vt 0.545692 0.877121
vt 0.808466 0.136222
vt 0.039272 0.847487
vt 0.415296 0.849093
vt 0.945828 0.300656
vt 0.936725 0.150206
vt 0.861003 0.317555
vt 0.899171 0.260846
vn -0.0000 0.0000 -1.0000
vn -1.0000 0.0000 0.0000
vn 1.0000 0.0002 -0.0000
vn 1.0000 -0.0000 -0.0000
vn 0.0000 1.0000 0.0000
vn 0.0000 0.0000 1.0000
vn 1.0000 0.0001 -0.0000
vn 0.9045 -0.3015 0.3015
vn 0.9045 -0.3015 -0.3015
vn -0.5774 0.5774 0.5773
vn -0.5774 0.5774 -0.5773
vn 0.5773 0.5774 -0.5773
vn 0.5774 0.5773 0.5774
vn -0.5774 0.5773 -0.5774
vn -0.5774 0.5773 0.5774
vn 0.5785 0.0002 -0.8157
vn 0.5784 0.0005 -0.8157
vn 0.5872 0.0000 -0.8094
vn 0.7071 0.0000 0.7071
vn 0.5774 0.5774 -0.5774
vn 0.5773 0.5773 0.5774
vn -0.5773 0.5774 -0.5774
vn -0.5773 0.5773 0.5774
vn 0.5774 0.5774 0.5773
vn 0.5774 0.5774 -0.5773
vn 0.9045 0.3015 0.3015
vn 0.5773 0.5774 0.5774
vn 0.9045 0.3015 -0.3015
vn 0.5774 -0.5774 -0.5774
vn 0.5773 -0.5774 0.5773
vn 0.0000 0.7072 -0.7071
vn 0.0000 0.7071 -0.7071
vn -0.7071 0.7071 0.0000
vn 0.0000 0.7071 0.7071
vn 0.0000 0.7072 0.7071
vn 0.7071 0.7071 0.0000
vn 0.7071 0.0000 -0.7071
vn -0.7071 0.0000 0.7071
vn -0.7071 0.0000 -0.7071
vn 0.7072 0.0000 -0.7071
vn 0.7038 0.0000 -0.7104
vn 0.5871 -0.0000 -0.8095
vn 0.7071 -0.7071 -0.0000
vn 0.7071 0.0000 -0.7072
vn 0.7072 0.0000 -0.7070
vn 0.0000 -0.7071 0.7071
vn 0.0000 -0.7071 -0.7071
vn 0.0000 -1.0000 -0.0000
vn 0.5785 0.0000 -0.8157
usemtl Material.009
s 1
f 15/1/1 24/2/1 26/3/1
f 27/4/2 29/5/2 31/6/2
f 37/7/3 79/8/4 40/9/4
f 16/10/5 30/11/5 20/12/5
f 32/13/6 19/14/6 21/15/6
f 68/16/1 42/17/1 10/18/1
f 22/19/4 14/20/4 17/21/4
f 3/22/4 66/23/4 5/24/4
f 47/25/1 56/26/1 58/27/1
f 59/28/2 61/29/2 63/30/2
f 74/31/5 77/32/5 71/33/5
f 48/34/5 62/35/5 52/36/5
f 64/37/6 51/38/6 53/39/6
f 85/40/4 76/41/4 87/42/4
f 3/22/4 34/43/4 70/44/4
f 79/8/4 66/23/4 38/45/4
f 79/8/4 5/24/4 66/23/4
f 54/46/4 46/47/4 49/48/4
f 72/49/4 34/43/4 3/22/4
f 11/50/2 44/51/2 7/52/2
f 8/53/6 39/54/6 65/55/6
f 88/56/6 73/57/6 2/58/6
f 36/59/7 72/49/4 79/8/4
f 3/22/4 70/44/4 66/23/4
f 82/60/1 6/61/1 78/62/1
f 9/63/5 69/64/5 12/65/5
f 1/66/8 2/67/8 3/68/8
f 4/69/9 5/70/9 6/71/9
f 7/72/10 8/73/10 9/74/10
f 10/18/11 11/75/11 12/76/11
f 15/1/12 16/77/12 17/78/12
f 20/79/13 21/80/13 22/81/13
f 25/82/14 26/83/14 27/84/14
f 30/85/15 31/86/15 32/87/15
f 36/88/16 37/89/17 33/90/18
f 38/91/19 39/54/19 40/92/19
f 47/25/20 48/93/20 49/94/20
f 52/95/21 53/96/21 54/97/21
f 57/98/22 58/99/22 59/100/22
f 62/101/23 63/102/23 64/103/23
f 65/55/24 66/104/24 67/105/24
f 68/16/25 69/106/25 70/107/25
f 71/33/26 72/108/26 73/109/26
f 74/31/27 75/110/27 76/111/27
f 77/32/28 78/112/28 79/113/28
f 80/114/20 81/115/20 82/116/20
f 83/117/29 84/118/29 85/119/29
f 86/120/30 87/121/30 88/122/30
f 10/18/31 69/64/32 68/16/32
f 7/123/33 12/65/33 11/124/33
f 65/55/34 9/63/35 8/53/35
f 70/125/36 67/126/36 66/127/36
f 15/1/37 14/20/37 13/128/37
f 20/129/36 17/21/36 16/130/36
f 19/14/19 22/19/19 21/15/19
f 30/131/34 21/15/34 20/79/34
f 29/132/38 32/13/38 31/133/38
f 25/134/33 31/6/33 30/85/33
f 24/2/39 27/4/39 26/3/39
f 16/77/32 26/3/32 25/82/32
f 77/32/36 72/108/36 71/33/36
f 68/16/40 34/135/41 33/90/42
f 65/55/19 38/91/19 66/104/19
f 11/75/39 42/17/39 41/136/39
f 44/137/38 8/53/38 7/72/38
f 47/25/37 46/47/37 45/138/37
f 52/139/36 49/48/36 48/140/36
f 51/38/19 54/46/19 53/39/19
f 62/141/34 53/39/34 52/95/34
f 61/142/38 64/37/38 63/143/38
f 57/144/33 63/30/33 62/101/33
f 56/26/39 59/28/39 58/27/39
f 48/93/32 58/27/32 57/98/32
f 1/66/43 5/70/43 4/69/43
f 3/68/19 73/57/19 72/108/19
f 79/113/37 6/61/40 5/70/40
f 81/115/36 74/31/36 76/111/36
f 87/121/43 83/145/43 85/146/43
f 88/56/19 76/147/19 75/148/19
f 82/60/44 85/119/45 84/149/45
f 86/120/46 2/58/46 1/66/46
f 71/33/34 75/148/34 74/31/34
f 84/149/47 4/69/47 6/61/47
f 78/62/32 80/114/32 82/60/32
f 83/145/48 1/66/48 4/69/48
f 15/1/1 13/128/1 24/2/1
f 27/4/2 23/150/2 29/5/2
f 36/59/7 79/8/4 37/7/3
f 79/8/4 38/45/4 40/9/4
f 16/10/5 25/151/5 30/11/5
f 32/13/6 28/152/6 19/14/6
f 68/16/1 33/90/1 42/17/1
f 22/19/4 18/153/4 14/20/4
f 47/25/1 45/138/1 56/26/1
f 59/28/2 55/154/2 61/29/2
f 74/31/5 80/114/5 77/32/5
f 48/34/5 57/155/5 62/35/5
f 64/37/6 60/156/6 51/38/6
f 85/40/4 81/157/4 76/41/4
f 54/46/4 50/158/4 46/47/4
f 72/49/4 35/159/4 34/43/4
f 11/50/2 41/160/2 44/51/2
f 8/53/6 43/161/6 39/54/6
f 88/56/6 75/148/6 73/57/6
f 36/59/7 35/159/4 72/49/4
f 82/60/1 84/149/1 6/61/1
f 9/63/5 67/126/5 69/64/5
f 33/90/18 34/135/41 35/162/49
f 35/162/49 36/88/16 33/90/18
f 10/18/31 12/65/31 69/64/32
f 7/123/33 9/63/33 12/65/33
f 65/55/34 67/126/34 9/63/35
f 70/125/36 69/64/36 67/126/36
f 15/1/37 17/21/37 14/20/37
f 20/129/36 22/19/36 17/21/36
f 19/14/19 18/153/19 22/19/19
f 30/131/34 32/13/34 21/15/34
f 29/132/38 28/152/38 32/13/38
f 25/134/33 27/4/33 31/6/33
f 24/2/39 23/150/39 27/4/39
f 16/77/32 15/1/32 26/3/32
f 77/32/36 79/113/36 72/108/36
f 68/16/40 70/107/40 34/135/41
f 65/55/19 39/54/19 38/91/19
f 11/75/39 10/18/39 42/17/39
f 44/137/38 43/161/38 8/53/38
f 47/25/37 49/48/37 46/47/37
f 52/139/36 54/46/36 49/48/36
f 51/38/19 50/158/19 54/46/19
f 62/141/34 64/37/34 53/39/34
f 61/142/38 60/156/38 64/37/38
f 57/144/33 59/28/33 63/30/33
f 56/26/39 55/154/39 59/28/39
f 48/93/32 47/25/32 58/27/32
f 1/66/43 3/68/43 5/70/43
f 3/68/19 2/58/19 73/57/19
f 79/113/37 78/62/37 6/61/40
f 81/115/36 80/114/36 74/31/36
f 87/121/43 86/120/43 83/145/43
f 88/56/19 87/163/19 76/147/19
f 82/60/44 81/164/44 85/119/45
f 86/120/46 88/56/46 2/58/46
f 71/33/34 73/57/34 75/148/34
f 84/149/47 83/145/47 4/69/47
f 78/62/32 77/32/32 80/114/32
f 83/145/48 86/120/48 1/66/48
