# Blender v2.91.2 OBJ File: 'uploads_files_2944736_GraveFree.blend'
# www.blender.org
mtllib grave17.mtl
o Grave_17.002_Cube.130
v -0.458922 1.427122 -5.543340
v -0.461640 1.427122 -5.546059
v -0.461640 1.429840 -5.543340
v -0.458922 1.427122 -5.440039
v -0.461640 1.429840 -5.440039
v -0.461640 1.427122 -5.437320
v -0.567780 1.427121 -5.543340
v -0.565062 1.429840 -5.543340
v -0.565062 1.427121 -5.546059
v -0.565062 1.427121 -5.437320
v -0.565062 1.429840 -5.440039
v -0.567780 1.427121 -5.440039
v -0.461640 1.047622 -5.755214
v -0.461640 1.050341 -5.757932
v -0.458922 1.050341 -5.755214
v -0.461640 1.147832 -5.755214
v -0.458922 1.145113 -5.755214
v -0.461640 1.145113 -5.757932
v -0.565062 1.147832 -5.755214
v -0.565062 1.145113 -5.757932
v -0.567780 1.145113 -5.755214
v -0.565062 1.047622 -5.755214
v -0.567780 1.050341 -5.755214
v -0.565062 1.050341 -5.757932
v -0.461640 1.150550 -5.546059
v -0.458922 1.145113 -5.543340
v -0.461640 1.147832 -5.548777
v -0.461640 1.047622 -5.548777
v -0.458922 1.050341 -5.543340
v -0.461640 1.044904 -5.546059
v -0.461640 1.047622 -5.434602
v -0.461640 1.044904 -5.437320
v -0.458922 1.050341 -5.440039
v -0.461640 1.150550 -5.437320
v -0.461640 1.147832 -5.434602
v -0.458922 1.145113 -5.440039
v -0.565062 1.047622 -5.434602
v -0.567780 1.050341 -5.440039
v -0.565062 1.044904 -5.437320
v -0.565062 1.150550 -5.437320
v -0.567780 1.145113 -5.440039
v -0.565062 1.147832 -5.434602
v -0.565062 1.047622 -5.548777
v -0.565062 1.044904 -5.546059
v -0.567780 1.050341 -5.543340
v -0.565062 1.150550 -5.546059
v -0.565062 1.147832 -5.548777
v -0.567780 1.145113 -5.543340
v -0.565062 1.047622 -5.228165
v -0.565062 1.050341 -5.225447
v -0.567780 1.050341 -5.228165
v -0.567780 1.145113 -5.228165
v -0.565062 1.145113 -5.225447
v -0.565062 1.147832 -5.228165
v -0.461640 1.047622 -5.228165
v -0.458922 1.050341 -5.228165
v -0.461640 1.050341 -5.225447
v -0.461640 1.147832 -5.228165
v -0.461640 1.145113 -5.225447
v -0.458922 1.145113 -5.228165
v 0.969776 0.347923 -5.853887
v 0.972494 0.347923 -5.851168
v 0.969776 0.439698 -5.853887
v 0.969776 0.442416 -5.851168
v 0.972494 0.439698 -5.851168
v 0.972494 0.347923 -5.132212
v 0.969776 0.347923 -5.129493
v 0.969776 0.442416 -5.132212
v 0.969776 0.439698 -5.129493
v 0.972494 0.439698 -5.132212
v -0.749859 0.347923 -5.851168
v -0.747140 0.347923 -5.853886
v -0.747140 0.442416 -5.851168
v -0.747140 0.439698 -5.853886
v -0.749859 0.439698 -5.851168
v -0.747140 0.347923 -5.129493
v -0.749858 0.347923 -5.132211
v -0.747140 0.442416 -5.132211
v -0.749858 0.439698 -5.132211
v -0.747140 0.439698 -5.129493
v -0.461640 0.390670 -5.546059
v -0.458922 0.390670 -5.543340
v -0.458922 0.390670 -5.440039
v -0.461640 0.390670 -5.437320
v -0.567780 0.390670 -5.543340
v -0.565062 0.390670 -5.546059
v -0.565062 0.390670 -5.437320
v -0.567780 0.390670 -5.440039
v 0.865424 0.438275 -5.776177
v 0.868142 0.438275 -5.773458
v 0.865424 0.509776 -5.776177
v 0.865424 0.512495 -5.773458
v 0.868142 0.509776 -5.773458
v 0.868143 0.438275 -5.209921
v 0.865424 0.438275 -5.207203
v 0.865424 0.512495 -5.209921
v 0.865424 0.509776 -5.207203
v 0.868143 0.509776 -5.209921
v -0.664921 0.438275 -5.773458
v -0.662203 0.438275 -5.776177
v -0.662203 0.512495 -5.773458
v -0.662203 0.509776 -5.776176
v -0.664921 0.509776 -5.773458
v -0.662202 0.438275 -5.207202
v -0.664921 0.438275 -5.209921
v -0.662202 0.512495 -5.209921
v -0.664921 0.509776 -5.209921
v -0.662202 0.509776 -5.207202
vt 0.821064 0.103224
vt 0.829689 0.126289
vt 0.821064 0.126289
vt 0.417774 0.730300
vt 0.432165 0.717355
vt 0.434591 0.724877
vt 0.702991 0.004175
vt 0.708953 0.131572
vt 0.702990 0.131572
vt 0.829689 0.135810
vt 0.821064 0.158875
vt 0.821064 0.135810
vt 0.829689 0.085554
vt 0.821064 0.102770
vt 0.821064 0.085554
vt 0.788064 0.268747
vt 0.780410 0.208789
vt 0.788064 0.208789
vt 0.821064 0.059528
vt 0.829689 0.076744
vt 0.821064 0.076744
vt 0.829689 0.184902
vt 0.821064 0.176998
vt 0.829689 0.176998
vt 0.702990 0.307328
vt 0.708953 0.354326
vt 0.702990 0.354326
vt 0.442790 0.722232
vt 0.440364 0.714710
vt 0.788064 0.208335
vt 0.780410 0.065152
vt 0.788064 0.065152
vt 0.788064 0.064699
vt 0.780410 0.004741
vt 0.788064 0.004741
vt 0.702990 0.132025
vt 0.708953 0.179022
vt 0.702990 0.179022
vt 0.582232 0.179321
vt 0.522274 0.322504
vt 0.522274 0.179320
vt 0.788064 0.412384
vt 0.780410 0.269200
vt 0.788064 0.269200
vt 0.821064 0.185355
vt 0.829689 0.202571
vt 0.821064 0.202571
vt 0.301641 0.718237
vt 0.310328 0.773239
vt 0.293442 0.720881
vt 0.316032 0.705292
vt 0.299215 0.710715
vt 0.829689 0.203024
vt 0.821064 0.257585
vt 0.821064 0.203024
vt 0.702990 0.179475
vt 0.708953 0.306875
vt 0.702990 0.306875
vt 0.433145 0.692327
vt 0.424946 0.694971
vt 0.821064 0.077197
vt 0.829689 0.085101
vt 0.821064 0.085101
vt 0.821064 0.159329
vt 0.829689 0.176545
vt 0.821064 0.176545
vt 0.821064 0.126742
vt 0.829689 0.135357
vt 0.821064 0.135357
vt 0.291016 0.713359
vt 0.821064 0.059074
vt 0.829689 0.004514
vt 0.829689 0.059074
vt 0.451477 0.777235
vt 0.343465 0.640233
vt 0.216067 0.593237
vt 0.343465 0.593237
vt 0.457180 0.709287
vt 0.276626 0.726305
vt 0.820837 0.126288
vt 0.821064 0.126515
vt 0.821064 0.126515
vt 0.820837 0.135357
vt 0.821064 0.135584
vt 0.821064 0.135584
vt 0.829916 0.126742
vt 0.829689 0.126515
vt 0.829689 0.126515
vt 0.829689 0.135584
vt 0.829916 0.135810
vt 0.821064 0.076970
vt 0.820837 0.076744
vt 0.820837 0.085554
vt 0.821064 0.085328
vt 0.829689 0.085328
vt 0.829689 0.085328
vt 0.829916 0.085101
vt 0.829916 0.076744
vt 0.829689 0.076970
vt 0.820837 0.102997
vt 0.821064 0.102997
vt 0.820838 0.059301
vt 0.821064 0.059301
vt 0.821064 0.202798
vt 0.820838 0.203024
vt 0.820838 0.202798
vt 0.821064 0.159102
vt 0.821064 0.159102
vt 0.820837 0.159102
vt 0.829916 0.202798
vt 0.829689 0.202798
vt 0.829689 0.158875
vt 0.829916 0.159102
vt 0.829689 0.159102
vt 0.829689 0.059301
vt 0.829916 0.059074
vt 0.829916 0.059301
vt 0.829689 0.102997
vt 0.829689 0.102997
vt 0.829916 0.102997
vt 0.829689 0.185355
vt 0.829689 0.185128
vt 0.829916 0.185355
vt 0.829916 0.176998
vt 0.829689 0.176771
vt 0.829689 0.176771
vt 0.820837 0.185355
vt 0.821064 0.185128
vt 0.821064 0.176771
vt 0.821064 0.176771
vt 0.820837 0.176998
vt 0.788291 0.208335
vt 0.788064 0.208562
vt 0.788291 0.269200
vt 0.788064 0.268974
vt 0.788064 0.268974
vt 0.788291 0.065152
vt 0.788291 0.065152
vt 0.788064 0.064925
vt 0.788291 0.004741
vt 0.788291 0.004741
vt 0.788064 0.004514
vt 0.343465 0.640460
vt 0.343691 0.640234
vt 0.343691 0.640234
vt 0.343465 0.593010
vt 0.343691 0.593237
vt 0.216067 0.640233
vt 0.216067 0.640460
vt 0.215840 0.640233
vt 0.215840 0.593237
vt 0.216067 0.593010
vt 0.820837 0.126742
vt 0.829916 0.184902
vt 0.829689 0.126742
vt 0.829916 0.135357
vt 0.829689 0.077197
vt 0.829916 0.077197
vt 0.820837 0.077197
vt 0.820837 0.085101
vt 0.821064 0.184902
vt 0.820837 0.184902
vt 0.829689 0.102770
vt 0.829689 0.103224
vt 0.780410 0.208335
vt 0.788291 0.268747
vt 0.788291 0.208789
vt 0.788291 0.412384
vt 0.780410 0.412611
vt 0.788064 0.412611
vt 0.788291 0.064699
vt 0.820838 0.004514
vt 0.821064 0.004514
vt 0.820838 0.257585
vt 0.829916 0.004514
vt 0.829916 0.257585
vt 0.829689 0.159329
vt 0.829916 0.176545
vt 0.820837 0.176545
vt 0.829916 0.085554
vt 0.829689 0.059528
vt 0.829916 0.126288
vt 0.820837 0.135810
vt 0.708953 0.179475
vt 0.708953 0.003949
vt 0.702991 0.003949
vt 0.291997 0.688332
vt 0.283798 0.690976
vt 0.415349 0.722778
vt 0.708953 0.004175
vt 0.780410 0.268747
vt 0.708953 0.307328
vt 0.780410 0.064699
vt 0.708953 0.132025
vt 0.582232 0.322504
vt 0.780410 0.412384
vt 0.318527 0.770595
vt 0.318458 0.712813
vt 0.829689 0.257585
vt 0.459676 0.774591
vt 0.459606 0.716809
vt 0.274200 0.718783
vn 0.0000 0.0000 -1.0000
vn -1.0000 0.0000 0.0000
vn 0.0000 0.0000 1.0000
vn 0.0000 1.0000 0.0000
vn 1.0000 0.0000 -0.0000
vn 0.0000 -1.0000 0.0000
vn 0.5774 0.5773 -0.5773
vn 0.5773 0.5774 0.5774
vn -0.5774 0.5773 -0.5773
vn -0.5773 0.5774 0.5774
vn 0.5774 -0.5773 -0.5774
vn -0.5774 -0.5773 -0.5774
vn 0.9045 0.3015 -0.3015
vn 0.9045 -0.3016 -0.3016
vn 0.9046 -0.3015 0.3015
vn 0.9046 0.3015 0.3015
vn -0.9046 -0.3015 0.3015
vn -0.9046 0.3015 0.3015
vn -0.9045 -0.3016 -0.3016
vn -0.9045 0.3015 -0.3015
vn -0.5774 -0.5773 0.5774
vn -0.5774 0.5773 0.5773
vn 0.5774 -0.5773 0.5773
vn 0.5774 0.5773 0.5773
vn 0.5776 0.5772 -0.5772
vn 0.5772 0.5774 0.5774
vn -0.5772 0.5774 -0.5774
vn 0.5774 0.5774 -0.5773
vn -0.5774 0.5773 -0.5774
vn 0.7071 0.7071 0.0000
vn 0.0000 -0.7071 0.7071
vn -0.0000 0.7071 0.7071
vn -0.7071 0.0000 0.7071
vn -0.7071 0.7071 0.0000
vn 0.0000 0.7071 -0.7071
vn 0.0000 -0.7071 -0.7071
vn -0.7071 0.0000 -0.7071
vn 0.7071 0.0000 -0.7071
vn 0.7071 0.0000 0.7071
vn 0.7071 0.0000 0.7072
vn -0.7071 0.0000 0.7072
vn -0.7072 0.0000 0.7070
vn -0.7070 0.0000 -0.7072
vn 0.7070 0.0000 -0.7072
vn 0.7070 0.0000 0.7072
vn -0.7072 0.0000 -0.7071
vn -0.7071 -0.7071 0.0000
vn 0.7071 -0.7071 -0.0000
vn 0.7072 0.0000 0.7071
vn -0.7072 0.0000 0.7071
vn -0.7070 0.0000 0.7072
vn 0.7072 0.0000 -0.7070
vn 0.7072 0.0000 0.7070
vn 0.0000 0.7072 -0.7071
usemtl Material.009
s 1
f 25/1/1 9/2/1 2/3/1
f 51/4/2 41/5/2 38/6/2
f 108/7/3 95/8/3 97/9/3
f 10/10/3 34/11/3 6/12/3
f 19/13/4 27/14/4 16/15/4
f 70/16/5 62/17/5 65/18/5
f 28/19/6 22/20/6 13/21/6
f 50/22/3 59/23/3 53/24/3
f 103/25/2 105/26/2 107/27/2
f 45/28/2 41/5/2 48/29/2
f 63/30/1 72/31/1 74/32/1
f 75/33/2 77/34/2 79/35/2
f 98/36/5 90/37/5 93/38/5
f 64/39/4 78/40/4 68/41/4
f 80/42/3 67/43/3 69/44/3
f 55/45/6 37/46/6 31/47/6
f 33/48/5 82/49/5 29/50/5
f 60/51/5 33/48/5 36/52/5
f 39/53/3 84/54/3 32/55/3
f 91/56/1 100/57/1 102/58/1
f 7/59/2 41/5/2 12/60/2
f 14/61/1 20/62/1 18/63/1
f 35/64/4 54/65/4 58/66/4
f 3/67/4 11/68/4 5/69/4
f 33/48/5 26/70/5 36/52/5
f 30/71/1 86/72/1 44/73/1
f 45/28/2 88/74/2 38/6/2
f 92/75/4 106/76/4 96/77/4
f 21/78/2 45/28/2 48/29/2
f 15/79/5 26/70/5 29/50/5
f 1/80/7 2/81/7 3/82/7
f 4/83/8 5/84/8 6/85/8
f 7/86/9 8/87/9 9/88/9
f 10/10/10 11/89/10 12/90/10
f 13/21/11 14/91/11 15/92/11
f 16/15/7 17/93/7 18/94/7
f 19/95/9 20/96/9 21/97/9
f 22/20/12 23/98/12 24/99/12
f 25/1/13 26/100/13 27/101/13
f 28/19/14 29/102/14 30/103/14
f 31/104/15 32/105/15 33/106/15
f 34/107/16 35/108/16 36/109/16
f 37/46/17 38/110/17 39/111/17
f 40/112/18 41/113/18 42/114/18
f 43/115/19 44/116/19 45/117/19
f 46/118/20 47/119/20 48/120/20
f 49/121/21 50/122/21 51/123/21
f 52/124/22 53/125/22 54/126/22
f 55/45/23 56/127/23 57/128/23
f 58/129/24 59/130/24 60/131/24
f 63/30/25 64/132/25 65/133/25
f 68/134/26 69/135/26 70/136/26
f 73/137/27 74/138/27 75/139/27
f 78/140/22 79/141/22 80/142/22
f 91/143/28 92/144/28 93/145/28
f 96/77/24 97/146/24 98/147/24
f 101/148/29 102/149/29 103/150/29
f 106/76/10 107/151/10 108/152/10
f 5/69/30 1/153/30 3/67/30
f 55/45/31 50/22/31 49/121/31
f 11/68/32 6/12/32 5/69/32
f 53/24/33 51/154/33 50/22/33
f 8/155/34 12/156/34 11/68/34
f 16/15/35 20/62/35 19/13/35
f 8/155/35 2/3/35 9/2/35
f 54/65/32 59/23/32 58/66/32
f 22/20/36 14/61/36 13/21/36
f 21/97/37 24/157/37 23/158/37
f 15/159/38 18/63/38 17/160/38
f 60/131/39 57/161/39 56/162/39
f 25/1/35 47/163/35 46/164/35
f 44/73/36 28/19/36 30/71/36
f 40/112/32 35/64/32 34/11/32
f 32/55/31 37/46/31 39/53/31
f 63/30/38 62/17/38 61/165/38
f 68/166/30 65/18/30 64/167/30
f 67/43/40 70/16/39 69/44/39
f 78/168/32 69/44/32 68/134/32
f 77/169/41 80/42/42 79/170/42
f 73/171/34 79/35/34 78/140/34
f 72/31/43 75/33/37 74/32/37
f 64/132/35 74/32/35 73/137/35
f 30/71/38 82/172/44 81/173/44
f 32/55/45 83/174/39 33/106/45
f 85/175/43 44/73/46 86/72/43
f 88/176/33 39/53/41 38/110/41
f 42/177/34 52/178/34 54/65/34
f 37/46/47 51/123/47 38/110/47
f 56/127/48 31/47/48 33/106/48
f 35/64/30 60/179/30 36/109/30
f 27/14/30 17/93/30 16/15/30
f 28/19/48 15/92/48 29/102/48
f 47/163/34 21/180/34 48/120/34
f 43/181/47 23/98/47 22/20/47
f 7/182/43 46/164/37 48/120/37
f 1/80/44 25/1/38 2/3/44
f 34/11/45 4/183/49 6/12/49
f 12/90/50 40/112/51 10/10/50
f 91/56/52 90/37/38 89/184/38
f 96/77/30 93/145/30 92/75/30
f 95/8/53 98/36/45 97/9/45
f 106/76/32 97/146/32 96/77/32
f 105/185/33 108/7/33 107/186/33
f 101/148/34 107/151/34 106/76/34
f 100/57/37 103/25/43 102/58/43
f 92/75/54 102/149/35 101/148/35
f 4/187/5 26/70/5 1/188/5
f 25/1/1 46/164/1 9/2/1
f 51/4/2 52/189/2 41/5/2
f 108/7/3 104/190/3 95/8/3
f 10/10/3 40/112/3 34/11/3
f 19/13/4 47/163/4 27/14/4
f 70/16/5 66/191/5 62/17/5
f 28/19/6 43/181/6 22/20/6
f 50/22/3 57/161/3 59/23/3
f 103/25/2 99/192/2 105/26/2
f 45/28/2 38/6/2 41/5/2
f 63/30/1 61/165/1 72/31/1
f 75/33/2 71/193/2 77/34/2
f 98/36/5 94/194/5 90/37/5
f 64/39/4 73/195/4 78/40/4
f 80/42/3 76/196/3 67/43/3
f 55/45/6 49/121/6 37/46/6
f 33/48/5 83/197/5 82/49/5
f 60/51/5 56/198/5 33/48/5
f 39/53/3 87/199/3 84/54/3
f 91/56/1 89/184/1 100/57/1
f 7/59/2 48/29/2 41/5/2
f 14/61/1 24/157/1 20/62/1
f 35/64/4 42/177/4 54/65/4
f 3/67/4 8/155/4 11/68/4
f 33/48/5 29/50/5 26/70/5
f 30/71/1 81/173/1 86/72/1
f 45/28/2 85/200/2 88/74/2
f 92/75/4 101/148/4 106/76/4
f 21/78/2 23/201/2 45/28/2
f 15/79/5 17/202/5 26/70/5
f 5/69/30 4/83/30 1/153/30
f 55/45/31 57/161/31 50/22/31
f 11/68/32 10/10/32 6/12/32
f 53/24/33 52/124/33 51/154/33
f 8/155/34 7/86/34 12/156/34
f 16/15/35 18/63/35 20/62/35
f 8/155/35 3/67/35 2/3/35
f 54/65/32 53/24/32 59/23/32
f 22/20/36 24/157/36 14/61/36
f 21/97/37 20/62/37 24/157/37
f 15/159/38 14/61/38 18/63/38
f 60/131/39 59/23/39 57/161/39
f 25/1/35 27/14/35 47/163/35
f 44/73/36 43/181/36 28/19/36
f 40/112/32 42/177/32 35/64/32
f 32/55/31 31/47/31 37/46/31
f 63/30/38 65/18/38 62/17/38
f 68/166/30 70/16/30 65/18/30
f 67/43/40 66/191/40 70/16/39
f 78/168/32 80/42/32 69/44/32
f 77/169/41 76/196/51 80/42/42
f 73/171/34 75/33/34 79/35/34
f 72/31/43 71/193/43 75/33/37
f 64/132/35 63/30/35 74/32/35
f 30/71/38 29/102/38 82/172/44
f 32/55/45 84/54/39 83/174/39
f 85/175/43 45/117/46 44/73/46
f 88/176/33 87/199/33 39/53/41
f 42/177/34 41/113/34 52/178/34
f 37/46/47 49/121/47 51/123/47
f 56/127/48 55/45/48 31/47/48
f 35/64/30 58/66/30 60/179/30
f 27/14/30 26/100/30 17/93/30
f 28/19/48 13/21/48 15/92/48
f 47/163/34 19/13/34 21/180/34
f 43/181/47 45/117/47 23/98/47
f 7/182/43 9/2/43 46/164/37
f 1/80/44 26/100/38 25/1/38
f 34/11/45 36/109/45 4/183/49
f 12/90/50 41/113/51 40/112/51
f 91/56/52 93/38/52 90/37/38
f 96/77/30 98/147/30 93/145/30
f 95/8/53 94/194/53 98/36/45
f 106/76/32 108/152/32 97/146/32
f 105/185/33 104/190/33 108/7/33
f 101/148/34 103/150/34 107/151/34
f 100/57/37 99/192/37 103/25/43
f 92/75/54 91/143/54 102/149/35
f 4/187/5 36/52/5 26/70/5
