# Blender v2.91.2 OBJ File: 'uploads_files_2944736_GraveFree.blend'
# www.blender.org
mtllib grave9.mtl
o Grave_09.002_Cube.140
v 0.050243 0.538619 0.694876
v 0.052962 0.542523 0.697595
v 0.052962 0.538619 0.697595
v 0.052962 0.542522 1.000195
v 0.050244 0.538619 1.002913
v 0.052962 0.538619 1.000195
v -0.055897 0.538619 0.697715
v -0.053178 0.538619 0.694876
v -0.053178 0.538619 1.002913
v -0.055897 0.538619 0.999678
v 0.050243 1.224470 0.721245
v 0.052962 1.228542 0.718971
v 0.050243 1.229661 0.722375
v 0.050243 1.326022 0.799223
v 0.052962 1.330978 0.800495
v 0.050243 1.327814 0.803986
v 0.050243 1.326022 0.898565
v 0.050243 1.327814 0.893802
v 0.052962 1.330978 0.897293
v 0.050244 1.224470 0.976545
v 0.050244 1.229661 0.975415
v 0.052962 1.228542 0.978819
v -0.053178 1.245341 1.001774
v -0.055897 1.242872 0.999658
v -0.053178 1.240154 1.002913
v -0.053178 1.363872 0.907799
v -0.053178 1.365677 0.903048
v -0.055897 1.364846 0.903277
v -0.053178 1.365677 0.794741
v -0.053178 1.363872 0.789990
v -0.055897 1.364773 0.795098
v -0.053178 1.245341 0.696016
v -0.053178 1.240154 0.694877
v -0.055897 1.242872 0.697720
v 0.050243 0.579201 0.721245
v 0.050243 0.576482 0.723963
v 0.052962 0.573764 0.718953
v 0.050243 1.363872 0.789990
v 0.050243 1.365677 0.794741
v 0.052962 1.362649 0.792762
v 0.050244 0.576482 0.973826
v 0.050244 0.579201 0.976545
v 0.052962 0.573764 0.978836
v 0.050243 1.245341 0.696016
v 0.052962 1.242837 0.697595
v 0.050243 1.240154 0.694877
v 0.050244 1.245341 1.001774
v 0.050244 1.240154 1.002913
v 0.052962 1.242837 1.000195
v 0.050243 1.365677 0.903048
v 0.050243 1.363872 0.907799
v 0.052962 1.362649 0.905027
v 0.017576 0.579201 0.724081
v 0.020295 0.576482 0.723963
v 0.020295 0.579201 0.721245
v 0.020295 0.576482 0.973826
v 0.017576 0.579201 0.973310
v 0.020295 0.579201 0.976545
v 0.020295 1.224470 0.721245
v 0.020295 1.229661 0.722375
v 0.017576 1.227189 0.724086
v 0.017576 1.227189 0.973290
v 0.020295 1.229661 0.975415
v 0.020295 1.224470 0.976545
v 0.020295 1.326022 0.799223
v 0.020295 1.327814 0.803986
v 0.017576 1.326924 0.804378
v 0.020295 1.326022 0.898565
v 0.017576 1.326998 0.894025
v 0.020295 1.327814 0.893802
v 0.131969 0.358491 0.636985
v 0.134714 0.358491 0.639739
v 0.104554 0.551001 0.668528
v 0.104199 0.553684 0.671686
v 0.107300 0.550993 0.671281
v 0.134714 0.358491 1.058049
v 0.131969 0.358491 1.060803
v 0.104199 0.553684 1.026101
v 0.104554 0.551001 1.029259
v 0.107301 0.550993 1.026507
v -0.137769 0.358491 0.639739
v -0.135024 0.358491 0.636985
v -0.107254 0.553684 0.671686
v -0.107609 0.551001 0.668528
v -0.110355 0.550993 0.671281
v -0.135024 0.358491 1.060803
v -0.137769 0.358491 1.058049
v -0.107254 0.553684 1.026101
v -0.110355 0.550993 1.026507
v -0.107609 0.551001 1.029259
v 0.050243 1.306584 0.725481
v 0.052962 1.302601 0.725167
v 0.050243 1.302311 0.722309
v -0.053178 1.306584 0.725481
v -0.053178 1.302311 0.722309
v -0.055897 1.302905 0.725432
v -0.053178 1.302311 0.975480
v -0.053178 1.306584 0.972309
v -0.055897 1.304779 0.971024
v 0.050243 1.306584 0.972309
v 0.050243 1.302311 0.975480
v 0.052962 1.302601 0.972622
v 0.050243 1.279875 0.746556
v 0.050243 1.275611 0.743382
v 0.052962 1.280375 0.742703
v 0.050243 1.275611 0.954408
v 0.050243 1.279875 0.951233
v 0.052962 1.280375 0.955086
v 0.020295 1.275611 0.743382
v 0.020295 1.279875 0.746556
v 0.017576 1.276215 0.746504
v 0.020295 1.275611 0.954408
v 0.017576 1.278083 0.949961
v 0.020295 1.279875 0.951233
vt 0.149705 0.886417
vt 0.152380 0.888246
vt 0.092433 0.888245
vt 0.322028 0.743746
vt 0.343360 0.688279
vt 0.343360 0.743746
vt 0.149705 0.864172
vt 0.093657 0.864173
vt 0.092433 0.862344
vt 0.919226 0.438790
vt 0.904003 0.433488
vt 0.925025 0.433648
vt 0.928754 0.541241
vt 0.937606 0.533857
vt 0.937606 0.541241
vt 0.394665 0.734997
vt 0.411363 0.755504
vt 0.394665 0.753157
vt 0.927476 0.428349
vt 0.587300 0.861552
vt 0.584590 0.872295
vt 0.583679 0.860837
vt 0.909967 0.438784
vt 0.341441 0.747942
vt 0.336487 0.752283
vt 0.328813 0.752289
vt 0.089220 0.884384
vt 0.087318 0.885885
vt 0.901631 0.368066
vt 0.927478 0.368066
vt 0.084888 0.871152
vt 0.087317 0.864704
vt 0.089220 0.866205
vt 0.591243 0.855070
vt 0.583835 0.860226
vt 0.588730 0.852634
vt 0.084889 0.879437
vt 0.082178 0.880099
vt 0.591316 0.879534
vt 0.597570 0.878215
vt 0.597095 0.881431
vt 0.093657 0.886416
vt 0.363397 0.753158
vt 0.346698 0.732650
vt 0.363397 0.734997
vt 0.588057 0.871259
vt 0.590799 0.879200
vt 0.584835 0.872862
vt 0.363827 0.734562
vt 0.396934 0.717918
vt 0.394234 0.734562
vt 0.598040 0.878276
vt 0.650516 0.873609
vt 0.597611 0.881498
vt 0.363827 0.753592
vt 0.396934 0.770237
vt 0.361127 0.770237
vt 0.928754 0.533391
vt 0.937607 0.524120
vt 0.937606 0.533391
vt 0.937607 0.510434
vt 0.928754 0.515804
vt 0.928754 0.510433
vt 0.928754 0.547078
vt 0.937606 0.541707
vt 0.937606 0.547078
vt 0.082178 0.870490
vt 0.648175 0.853403
vt 0.595199 0.849136
vt 0.650557 0.850882
vt 0.647779 0.871293
vt 0.650785 0.851118
vt 0.650737 0.873348
vt 0.928754 0.509968
vt 0.937606 0.449918
vt 0.937606 0.509968
vt 0.363862 0.753127
vt 0.394199 0.735027
vt 0.394199 0.753127
vt 0.928754 0.516270
vt 0.937606 0.523655
vt 0.928754 0.523655
vt 0.152714 0.888246
vt 0.594688 0.849282
vt 0.591641 0.854686
vt 0.589193 0.852201
vt 0.324025 0.748102
vt 0.152380 0.862344
vt 0.937606 0.607593
vt 0.937839 0.607259
vt 0.937839 0.607593
vt 0.937839 0.450252
vt 0.937839 0.449918
vt 0.597353 0.881823
vt 0.597392 0.881530
vt 0.584320 0.872769
vt 0.584616 0.872626
vt 0.583638 0.860274
vt 0.583353 0.860790
vt 0.583325 0.860438
vt 0.594970 0.849129
vt 0.594866 0.848865
vt 0.928521 0.510201
vt 0.928521 0.509968
vt 0.928754 0.523888
vt 0.928521 0.524101
vt 0.928521 0.533857
vt 0.928521 0.533624
vt 0.928521 0.547543
vt 0.928521 0.547310
vt 0.650735 0.873577
vt 0.651004 0.873765
vt 0.937606 0.533624
vt 0.937839 0.533749
vt 0.650787 0.850889
vt 0.650769 0.850653
vt 0.651004 0.850660
vt 0.937839 0.547313
vt 0.937839 0.547543
vt 0.937839 0.509968
vt 0.937839 0.510198
vt 0.937606 0.523888
vt 0.937839 0.523951
vt 0.647512 0.871113
vt 0.647774 0.871498
vt 0.647774 0.871498
vt 0.648392 0.853615
vt 0.648172 0.853862
vt 0.648397 0.853409
vt 0.597828 0.878305
vt 0.597867 0.878013
vt 0.596212 0.852303
vt 0.596108 0.852039
vt 0.596429 0.852309
vt 0.587869 0.871052
vt 0.588164 0.870909
vt 0.587438 0.861013
vt 0.587610 0.861325
vt 0.587281 0.861257
vt 0.363592 0.753559
vt 0.363862 0.753360
vt 0.363827 0.753360
vt 0.394199 0.753327
vt 0.394464 0.753559
vt 0.394234 0.753360
vt 0.363862 0.734827
vt 0.363597 0.734595
vt 0.363827 0.734794
vt 0.394199 0.734827
vt 0.394234 0.734794
vt 0.394464 0.734595
vt 0.937839 0.541474
vt 0.937606 0.541474
vt 0.928754 0.541474
vt 0.928521 0.541454
vt 0.928754 0.516037
vt 0.928521 0.516037
vt 0.937606 0.516250
vt 0.937606 0.516037
vt 0.937839 0.515929
vt 0.591019 0.879435
vt 0.590846 0.879687
vt 0.588911 0.852353
vt 0.588685 0.852129
vt 0.592965 0.876714
vt 0.592765 0.876052
vt 0.592920 0.876226
vt 0.591626 0.855049
vt 0.591400 0.854825
vt 0.928754 0.547543
vt 0.937606 0.547543
vt 0.928754 0.533856
vt 0.928754 0.524120
vt 0.928521 0.607593
vt 0.928754 0.607593
vt 0.928521 0.449918
vt 0.647298 0.871337
vt 0.647561 0.871527
vt 0.596331 0.852045
vt 0.647963 0.853633
vt 0.595867 0.852178
vt 0.587849 0.870758
vt 0.928521 0.510318
vt 0.937839 0.523763
vt 0.937839 0.516037
vt 0.597763 0.877975
vt 0.593034 0.876600
vt 0.593013 0.876272
vt 0.928521 0.533361
vt 0.588146 0.870596
vt 0.587624 0.861576
vt 0.360897 0.770204
vt 0.394234 0.753593
vt 0.411326 0.732420
vt 0.394628 0.734767
vt 0.363862 0.735027
vt 0.346736 0.732420
vt 0.363433 0.734767
vt 0.594835 0.848882
vt 0.596101 0.852369
vt 0.928754 0.541707
vt 0.937839 0.541582
vt 0.597320 0.881812
vt 0.590859 0.879700
vt 0.591493 0.855257
vt 0.928521 0.547208
vt 0.928521 0.516249
vt 0.928521 0.523888
vt 0.937839 0.510296
vt 0.937606 0.515804
vt 0.322027 0.688279
vt 0.411363 0.732650
vt 0.901631 0.428349
vt 0.346698 0.755504
vt 0.592589 0.876303
vt 0.361127 0.717918
vt 0.928754 0.449918
vt 0.152714 0.862344
vt 0.937839 0.533561
vt 0.397164 0.770204
vt 0.937839 0.547216
vn 1.0000 -0.0000 -0.0000
vn -1.0000 -0.0000 0.0000
vn -0.0000 0.6754 -0.7374
vn -0.0000 0.8553 -0.5181
vn 0.0000 0.1617 0.9868
vn 0.1384 -0.9756 -0.1706
vn 0.0000 -0.9839 0.1789
vn 0.0000 -0.9839 -0.1789
vn -0.0000 -0.6785 -0.7346
vn -0.0000 -0.8579 -0.5138
vn 0.0000 -0.5093 0.8606
vn 0.0000 -0.3161 0.9487
vn -0.0000 0.1617 -0.9868
vn 0.0482 -0.8691 0.4924
vn 0.0000 -0.6785 0.7346
vn 0.0000 -0.8579 0.5138
vn -0.9900 0.1410 0.0000
vn 0.0000 -0.1070 0.9943
vn 0.0000 -0.0000 1.0000
vn 0.9900 0.1410 -0.0000
vn -0.1622 0.9699 -0.1813
vn 0.0000 0.9836 0.1805
vn -0.0000 0.9836 -0.1806
vn 0.0000 0.3186 0.9479
vn 0.0000 0.5102 0.8600
vn 0.0000 0.3187 0.9479
vn -0.0000 0.3186 -0.9479
vn -0.0000 0.5102 -0.8600
vn 0.0000 0.0000 -1.0000
vn 0.0000 -0.1070 -0.9943
vn 0.0000 1.0000 0.0000
vn 0.0000 0.1079 0.9942
vn 0.0000 0.6754 0.7374
vn 0.0000 0.8553 0.5181
vn -0.0377 0.8682 0.4948
vn 0.0000 -0.3161 -0.9487
vn 0.0000 -0.5093 -0.8606
vn 0.0000 -0.5094 -0.8606
vn 0.7071 0.0000 -0.7071
vn 0.7071 -0.0000 0.7071
vn 0.6745 -0.0372 0.7374
vn 0.7100 -0.1623 0.6853
vn 0.7157 -0.2449 0.6541
vn 0.7693 -0.5172 0.3751
vn 0.7949 -0.5705 0.2065
vn 0.7914 -0.6077 0.0654
vn 0.7693 -0.5171 -0.3751
vn 0.7914 -0.6077 -0.0654
vn 0.7949 -0.5705 -0.2065
vn 0.6744 -0.0372 -0.7374
vn 0.7157 -0.2449 -0.6541
vn 0.7097 -0.1626 -0.6855
vn -0.7238 0.2367 0.6481
vn -0.7359 0.1574 0.6586
vn -0.7478 0.0440 0.6624
vn -0.1407 0.9750 0.1720
vn -0.2835 0.9463 0.1557
vn -0.0486 0.8668 -0.4964
vn -0.3211 0.9381 -0.1300
vn -0.6700 0.2573 -0.6963
vn -0.6995 0.0459 -0.7132
vn -0.6817 0.1687 -0.7120
vn 0.8953 0.3149 0.3149
vn 0.6860 0.6045 -0.4049
vn 0.7133 0.6958 -0.0848
vn 0.7056 0.6575 -0.2642
vn 0.8953 0.3149 -0.3149
vn 0.6538 0.2634 -0.7094
vn 0.6643 0.1711 -0.7276
vn 0.6829 0.0467 -0.7290
vn 0.6539 0.2634 0.7093
vn 0.6829 0.0467 0.7290
vn 0.6639 0.1713 0.7279
vn 0.7133 0.6958 0.0848
vn 0.6861 0.6044 0.4048
vn 0.7055 0.6576 0.2642
vn 0.5937 0.5690 0.5690
vn 0.6438 0.5411 -0.5411
vn 0.6996 -0.0455 0.7130
vn 0.6707 -0.2551 0.6965
vn 0.6818 -0.1672 0.7121
vn 0.7362 -0.1559 -0.6586
vn 0.7244 -0.2348 -0.6482
vn 0.7479 -0.0436 -0.6624
vn 0.1609 -0.9703 0.1804
vn 0.3177 -0.9396 0.1276
vn 0.0370 -0.8705 -0.4908
vn 0.2791 -0.9478 -0.1542
vn 0.5211 0.6785 -0.5178
vn 0.5211 0.6785 0.5178
vn -0.5211 0.6785 -0.5178
vn -0.5210 0.6785 0.5178
vn 0.6898 0.5119 -0.5120
vn 0.6680 0.4323 -0.6057
vn 0.6554 0.3673 -0.6599
vn -0.6850 0.5130 -0.5173
vn -0.6694 0.3581 -0.6509
vn -0.6739 0.4354 -0.5968
vn -0.7154 0.3240 0.6190
vn -0.6272 0.5307 0.5701
vn -0.6578 0.4794 0.5809
vn 0.6899 0.5119 0.5119
vn 0.6554 0.3674 0.6600
vn 0.6680 0.4323 0.6057
vn 0.7496 -0.4662 0.4698
vn 0.7196 -0.3213 0.6155
vn 0.7451 -0.4068 0.5286
vn 0.7196 -0.3213 -0.6156
vn 0.7497 -0.4662 -0.4697
vn 0.7451 -0.4071 -0.5282
vn 0.6693 -0.3569 0.6517
vn 0.6846 -0.5158 0.5151
vn 0.6737 -0.4365 0.5963
vn 0.7153 -0.3227 -0.6198
vn 0.6559 -0.4823 -0.5807
vn 0.6243 -0.5347 -0.5696
vn 0.0000 0.1079 -0.9942
vn -0.7224 0.0000 -0.6915
vn -0.7666 0.0000 0.6421
vn 0.0000 0.7071 -0.7071
vn 0.6432 -0.0000 0.7657
vn 0.6431 -0.0000 -0.7658
vn 0.7223 -0.0000 0.6916
vn 0.7665 -0.0000 -0.6423
vn 0.0000 0.7071 0.7071
vn -0.7071 0.5287 -0.4695
vn 0.7071 0.7071 -0.0000
vn 0.6922 0.2116 -0.6900
vn 0.6554 0.7553 0.0000
vn 0.6922 0.2116 0.6900
vn 0.0000 0.7621 0.6474
vn -0.6922 0.2116 0.6900
vn -0.6554 0.7553 0.0000
vn -0.6922 0.2116 -0.6900
vn -0.0000 0.7621 -0.6474
vn 0.6326 -0.5827 -0.5101
vn -0.6355 0.5775 0.5124
vn 0.7071 -0.5318 0.4660
vn 0.0000 0.6755 0.7374
vn 0.0000 -0.6784 0.7346
vn -0.7666 0.0000 0.6422
vn 0.6431 -0.0000 -0.7657
vn 0.7665 -0.0000 -0.6422
vn 0.6327 -0.5827 -0.5101
usemtl Material.009
s 1
f 37/1/1 2/2/1 45/3/1
f 62/4/1 53/5/1 61/6/1
f 43/7/1 22/8/1 49/9/1
f 28/10/2 96/11/2 99/12/2
f 94/13/3 38/14/4 91/15/3
f 90/16/5 77/17/5 79/18/5
f 96/11/2 24/19/2 99/12/2
f 70/20/6 16/21/7 18/22/8
f 28/10/2 31/23/2 96/11/2
f 111/24/1 67/25/1 69/26/1
f 105/27/1 45/3/1 92/28/1
f 24/19/2 7/29/2 10/30/2
f 19/31/1 102/32/1 108/33/1
f 114/34/9 17/35/10 107/36/9
f 108/33/1 49/9/1 22/8/1
f 111/24/1 62/4/1 61/6/1
f 15/37/1 92/28/1 40/38/1
f 104/39/11 60/40/12 13/41/12
f 37/1/1 45/3/1 12/42/1
f 73/43/13 82/44/13 84/45/13
f 65/46/14 103/47/15 14/48/16
f 85/49/17 87/50/17 89/51/17
f 59/52/18 35/53/19 11/54/18
f 75/55/20 76/56/20 72/57/20
f 29/58/21 50/59/22 39/60/23
f 47/61/24 97/62/25 23/63/26
f 32/64/27 93/65/28 44/66/27
f 15/37/1 52/67/1 19/31/1
f 58/68/29 20/69/30 42/70/29
f 54/71/31 41/72/31 36/73/31
f 25/74/32 5/75/19 48/76/32
f 74/77/31 88/78/31 78/79/31
f 98/80/33 51/81/34 26/82/35
f 3/83/1 2/2/1 37/1/1
f 21/84/36 112/85/37 106/86/38
f 111/24/1 69/26/1 113/87/1
f 43/7/1 49/9/1 4/88/1
f 1/89/39 2/90/39 3/91/39
f 4/92/40 5/75/40 6/93/40
f 11/54/41 12/94/42 13/95/43
f 14/48/44 15/96/45 16/97/46
f 17/98/47 18/99/48 19/100/49
f 20/69/50 21/101/51 22/102/52
f 23/63/53 24/103/54 25/104/55
f 26/82/35 27/105/56 28/106/57
f 29/58/21 30/107/58 31/108/59
f 32/64/60 33/109/61 34/110/62
f 35/53/63 36/111/63 37/112/63
f 38/14/64 39/113/65 40/114/66
f 41/115/67 42/116/67 43/117/67
f 44/66/68 45/118/69 46/119/70
f 47/61/71 48/120/72 49/121/73
f 50/59/74 51/122/75 52/123/76
f 53/124/77 54/125/77 55/126/77
f 56/127/78 57/128/78 58/129/78
f 59/52/79 60/130/80 61/131/81
f 62/132/82 63/133/83 64/134/84
f 65/46/14 66/135/85 67/136/86
f 68/137/87 69/138/88 70/139/6
f 73/140/89 74/141/89 75/142/89
f 78/143/90 79/144/90 80/145/90
f 83/146/91 84/147/91 85/148/91
f 88/149/92 89/150/92 90/151/92
f 91/15/93 92/152/94 93/153/95
f 94/13/96 95/154/97 96/155/98
f 97/62/99 98/156/100 99/157/101
f 100/158/102 101/159/103 102/160/104
f 103/47/105 104/161/106 105/162/107
f 106/86/108 107/163/109 108/164/110
f 109/165/111 110/166/112 111/167/113
f 112/85/114 113/168/115 114/169/116
f 33/170/117 44/66/27 46/171/117
f 39/60/23 30/172/58 29/58/21
f 48/76/32 23/63/26 25/74/32
f 27/173/56 51/81/34 50/59/22
f 46/171/70 2/90/39 1/89/39
f 48/76/72 4/92/40 49/121/73
f 7/174/118 33/170/61 8/175/118
f 10/176/119 25/74/55 24/103/54
f 56/127/120 42/70/120 41/72/120
f 12/94/42 35/53/121 37/112/121
f 22/102/52 42/70/122 20/69/50
f 59/52/79 53/177/123 55/178/123
f 64/179/84 57/180/124 62/132/82
f 21/84/36 64/179/30 63/181/36
f 55/178/125 36/73/125 35/53/125
f 68/137/87 18/22/8 17/35/10
f 14/48/16 66/182/85 65/46/14
f 11/54/18 60/40/12 59/52/18
f 96/155/98 30/172/126 94/13/96
f 24/183/54 97/62/99 99/157/101
f 52/184/76 100/158/102 102/185/104
f 61/186/81 109/187/111 111/188/113
f 36/73/127 43/117/127 37/112/127
f 52/123/76 39/60/65 50/59/74
f 31/189/59 27/173/56 29/58/21
f 16/21/46 19/100/49 18/22/48
f 57/128/127 54/71/127 53/124/127
f 67/190/86 70/20/6 69/191/88
f 73/140/128 72/57/128 71/192/128
f 78/79/129 75/55/129 74/77/129
f 79/144/130 76/56/130 80/193/130
f 78/79/131 90/16/131 79/18/131
f 87/194/132 90/16/132 89/195/132
f 83/196/133 89/51/133 88/78/133
f 84/45/134 81/197/134 85/198/134
f 74/77/135 84/45/135 83/196/135
f 40/114/66 91/15/93 38/14/64
f 14/48/44 105/162/107 15/96/45
f 106/86/108 22/199/52 21/84/51
f 62/200/82 112/85/114 63/181/83
f 112/85/37 107/36/9 106/86/38
f 91/15/3 95/201/28 94/13/3
f 92/202/94 44/66/68 93/65/95
f 104/39/106 12/203/42 105/204/107
f 17/35/47 108/164/110 107/36/109
f 113/205/115 68/137/136 114/34/116
f 34/206/62 95/201/97 32/64/60
f 99/207/101 26/82/137 28/208/137
f 102/160/104 47/61/71 49/209/73
f 111/167/113 65/46/138 67/136/138
f 103/47/15 109/187/11 104/39/11
f 98/80/33 101/210/25 100/158/139
f 46/171/117 8/175/29 33/170/117
f 62/4/1 57/211/1 53/5/1
f 94/13/3 30/172/58 38/14/4
f 90/16/5 86/212/5 77/17/5
f 96/11/2 34/213/2 24/19/2
f 70/20/6 66/182/85 16/21/7
f 105/27/1 12/42/1 45/3/1
f 24/19/2 34/213/2 7/29/2
f 19/31/1 52/67/1 102/32/1
f 114/34/9 68/137/87 17/35/10
f 108/33/1 102/32/1 49/9/1
f 111/24/1 113/87/1 62/4/1
f 15/37/1 105/27/1 92/28/1
f 104/39/11 109/187/11 60/40/12
f 73/43/13 71/214/13 82/44/13
f 65/46/14 110/215/140 103/47/15
f 85/49/17 81/216/17 87/50/17
f 59/52/18 55/178/19 35/53/19
f 75/55/20 80/193/20 76/56/20
f 29/58/21 27/173/56 50/59/22
f 47/61/24 101/210/25 97/62/25
f 32/64/27 95/201/28 93/65/28
f 15/37/1 40/38/1 52/67/1
f 58/68/29 64/179/30 20/69/30
f 54/71/31 56/127/31 41/72/31
f 25/74/32 9/217/19 5/75/19
f 74/77/31 83/196/31 88/78/31
f 98/80/33 100/158/139 51/81/34
f 37/1/1 43/7/1 6/218/1
f 43/7/1 4/88/1 6/218/1
f 6/218/1 3/83/1 37/1/1
f 21/84/36 63/181/36 112/85/37
f 33/170/117 32/64/27 44/66/27
f 39/60/23 38/14/4 30/172/58
f 48/76/32 47/61/24 23/63/26
f 27/173/56 26/82/35 51/81/34
f 46/171/70 45/118/69 2/90/39
f 48/76/72 5/75/40 4/92/40
f 7/174/118 34/110/62 33/170/61
f 10/176/119 9/217/141 25/74/55
f 56/127/120 58/68/120 42/70/120
f 12/94/42 11/54/41 35/53/121
f 22/102/52 43/117/142 42/70/122
f 59/52/79 61/131/81 53/177/123
f 64/179/84 58/68/143 57/180/124
f 21/84/36 20/69/30 64/179/30
f 55/178/125 54/71/125 36/73/125
f 68/137/87 70/20/6 18/22/8
f 14/48/16 16/21/7 66/182/85
f 11/54/18 13/41/12 60/40/12
f 96/155/98 31/108/126 30/172/126
f 24/183/54 23/63/53 97/62/99
f 52/184/76 51/81/75 100/158/102
f 61/186/81 60/40/80 109/187/111
f 36/73/127 41/72/127 43/117/127
f 52/123/76 40/219/66 39/60/65
f 31/189/59 28/106/57 27/173/56
f 16/21/46 15/96/45 19/100/49
f 57/128/127 56/127/127 54/71/127
f 67/190/86 66/182/85 70/20/6
f 73/140/128 75/55/128 72/57/128
f 78/79/129 80/193/129 75/55/129
f 79/144/130 77/220/130 76/56/130
f 78/79/131 88/78/131 90/16/131
f 87/194/132 86/212/132 90/16/132
f 83/196/133 85/49/133 89/51/133
f 84/45/134 82/44/134 81/197/134
f 74/77/135 73/43/135 84/45/135
f 40/114/66 92/152/94 91/15/93
f 14/48/44 103/47/105 105/162/107
f 106/86/108 108/164/110 22/199/52
f 62/200/82 113/168/115 112/85/114
f 112/85/37 114/34/9 107/36/9
f 91/15/3 93/65/28 95/201/28
f 92/202/94 45/221/69 44/66/68
f 104/39/106 13/41/43 12/203/42
f 17/35/47 19/100/49 108/164/110
f 113/205/115 69/138/144 68/137/136
f 34/206/62 96/155/98 95/201/97
f 99/207/101 98/80/100 26/82/137
f 102/160/104 101/210/103 47/61/71
f 111/167/113 110/215/112 65/46/138
f 103/47/15 110/215/140 109/187/11
f 98/80/33 97/62/25 101/210/25
f 46/171/117 1/89/29 8/175/29
